<svg width="13529" height="1551" viewBox="0 0 13529 1551" fill="none" xmlns="http://www.w3.org/2000/svg">
<path d="M3062.98 1166.96C3052.2 1166.96 3044.11 1163.11 3038.72 1155.42C3033.33 1147.73 3030.63 1137.84 3030.63 1125.75C3030.63 1107.07 3037.1 1092.79 3050.04 1082.9C3062.98 1073.01 3080.77 1068.06 3103.41 1068.06H3143.85V120.322H3062.98C3052.2 120.322 3044.11 116.476 3038.72 108.784C3033.33 101.092 3030.63 90.6535 3030.63 77.4676C3030.63 59.8862 3037.1 46.1508 3050.04 36.2614C3062.98 26.3719 3080.77 21.4271 3103.41 21.4271H3409.11C3424.2 21.4271 3431.75 29.6684 3431.75 46.1509C3431.75 59.3368 3427.97 70.3252 3420.43 79.1158C3412.88 86.8076 3399.94 92.8512 3381.61 97.2465L3305.59 118.674V1069.71L3381.61 1091.14C3416.11 1099.93 3433.37 1116.96 3433.37 1142.23C3433.37 1158.72 3425.82 1166.96 3410.72 1166.96H3062.98ZM3305.59 586.776L3777.87 120.322H3674.36C3663.58 120.322 3655.49 116.476 3650.1 108.784C3644.71 101.092 3642.01 90.6535 3642.01 77.4676C3642.01 59.8862 3648.48 46.1508 3661.42 36.2614C3674.36 26.3719 3692.15 21.4271 3714.8 21.4271H4017.25C4034.5 21.4271 4043.13 31.866 4043.13 52.7438C4043.13 64.831 4038.28 75.8193 4028.57 85.7088C4018.87 94.4995 4005.39 101.092 3988.14 105.488L3928.29 118.674L3480.27 563.7L3938 1071.36L4017.25 1092.79C4053.91 1102.68 4072.24 1119.16 4072.24 1142.23C4072.24 1158.72 4064.7 1166.96 4049.6 1166.96H3802.14L3305.59 586.776Z" fill="white"/>
<path d="M4187.17 1166.96C4177.46 1166.96 4169.92 1163.66 4164.52 1157.07C4159.13 1149.38 4156.44 1139.49 4156.44 1127.4C4156.44 1109.82 4162.37 1096.63 4174.23 1087.84C4187.17 1079.05 4204.42 1074.66 4225.99 1074.66H4266.42V451.62H4187.17C4166.68 451.62 4156.44 438.983 4156.44 413.71C4156.44 395.03 4162.37 381.294 4174.23 372.504C4187.17 363.713 4204.42 359.318 4225.99 359.318H4408.75V469.75H4415.22C4505.8 385.14 4598.53 342.835 4693.42 342.835C4769.98 342.835 4833.05 365.911 4882.65 412.062C4933.33 457.114 4958.67 518.648 4958.67 596.665V1074.66L5031.46 1096.08C5048.71 1101.58 5061.11 1108.17 5068.66 1115.86C5076.21 1122.46 5079.98 1131.8 5079.98 1143.88C5079.98 1159.27 5072.97 1166.96 5058.95 1166.96H4729C4719.3 1166.96 4711.75 1163.66 4706.36 1157.07C4700.97 1149.38 4698.27 1139.49 4698.27 1127.4C4698.27 1109.82 4704.2 1096.63 4716.06 1087.84C4729 1079.05 4746.25 1074.66 4767.82 1074.66H4808.25V609.851C4808.25 560.404 4794.24 520.846 4766.2 491.177C4738.17 461.509 4698.27 446.675 4646.51 446.675C4606.62 446.675 4566.72 457.663 4526.82 479.64C4486.93 501.616 4450.27 531.285 4416.84 568.645V1074.66L4489.62 1096.08C4506.88 1100.48 4519.28 1106.52 4526.82 1114.21C4534.37 1121.91 4538.15 1131.8 4538.15 1143.88C4538.15 1159.27 4531.14 1166.96 4517.12 1166.96H4187.17Z" fill="white"/>
<path d="M5556.7 1188.39C5481.22 1188.39 5414.37 1171.9 5356.14 1138.94C5297.91 1105.97 5252.62 1057.62 5220.28 993.893C5187.93 930.16 5171.75 853.792 5171.75 764.786C5171.75 675.781 5187.93 599.962 5220.28 537.328C5252.62 473.596 5297.91 425.248 5356.14 392.283C5414.37 359.318 5481.22 342.835 5556.7 342.835C5632.18 342.835 5699.03 359.318 5757.26 392.283C5815.48 425.248 5860.77 473.596 5893.12 537.328C5925.47 599.962 5941.64 675.781 5941.64 764.786C5941.64 853.792 5925.47 930.16 5893.12 993.893C5860.77 1057.62 5815.48 1105.97 5757.26 1138.94C5699.03 1171.9 5632.18 1188.39 5556.7 1188.39ZM5556.7 1089.49C5630.02 1089.49 5686.63 1061.47 5726.53 1005.43C5767.5 948.291 5787.99 868.076 5787.99 764.786C5787.99 661.496 5767.5 581.831 5726.53 525.791C5686.63 469.75 5630.02 441.73 5556.7 441.73C5482.3 441.73 5424.61 469.75 5383.64 525.791C5343.74 581.831 5323.79 661.496 5323.79 764.786C5323.79 868.076 5344.28 948.291 5385.25 1005.43C5426.23 1061.47 5483.38 1089.49 5556.7 1089.49Z" fill="white"/>
<path d="M6084.04 451.62H6019.34C5998.85 451.62 5988.61 438.983 5988.61 413.71C5988.61 395.03 5994.54 381.294 6006.4 372.504C6019.34 363.713 6036.59 359.318 6058.16 359.318H6349.29C6363.31 359.318 6370.32 367.01 6370.32 382.393C6370.32 405.469 6354.15 421.402 6321.8 430.192L6234.46 453.268L6397.82 1010.38C6402.13 1025.76 6405.36 1041.69 6407.52 1058.17C6409.68 1073.56 6410.75 1083.45 6410.75 1087.84H6417.22C6417.22 1083.45 6418.3 1073.56 6420.46 1058.17C6422.62 1041.69 6425.85 1025.76 6430.16 1010.38L6606.46 359.318H6784.38L6975.23 1010.38C6979.54 1025.76 6982.78 1041.69 6984.94 1058.17C6987.09 1073.56 6988.17 1083.45 6988.17 1087.84H6994.64C6994.64 1083.45 6995.72 1073.56 6997.87 1058.17C7000.03 1041.69 7003.27 1025.76 7007.58 1010.38L7159.62 451.62H7062.57C7041.01 451.62 7030.22 438.983 7030.22 413.71C7030.22 395.03 7036.15 381.294 7048.01 372.504C7060.95 363.713 7078.21 359.318 7099.77 359.318H7363.41C7377.43 359.318 7384.44 367.01 7384.44 382.393C7384.44 403.271 7367.72 419.204 7334.3 430.192L7269.6 453.268L7069.04 1166.96H6870.1L6697.04 568.645C6691.64 548.866 6687.33 527.439 6684.1 504.363C6681.94 480.189 6680.86 464.256 6680.86 456.564H6674.39C6674.39 464.256 6672.78 480.189 6669.54 504.363C6667.38 527.439 6663.61 548.866 6658.22 568.645L6496.48 1166.96H6297.54L6084.04 451.62Z" fill="white"/>
<path d="M7489.91 1166.96C7480.2 1166.96 7472.66 1163.66 7467.26 1157.07C7461.87 1149.38 7459.18 1139.49 7459.18 1127.4C7459.18 1109.82 7465.11 1096.63 7476.97 1087.84C7489.91 1079.05 7507.16 1074.66 7528.73 1074.66H7569.16V451.62H7489.91C7469.42 451.62 7459.18 438.983 7459.18 413.71C7459.18 395.03 7465.11 381.294 7476.97 372.504C7489.91 363.713 7507.16 359.318 7528.73 359.318H7711.49V469.75H7717.96C7808.54 385.14 7901.27 342.835 7996.16 342.835C8072.72 342.835 8135.79 365.911 8185.4 412.062C8236.07 457.114 8261.41 518.648 8261.41 596.665V1074.66L8334.2 1096.08C8351.45 1101.58 8363.85 1108.17 8371.4 1115.86C8378.95 1122.46 8382.72 1131.8 8382.72 1143.88C8382.72 1159.27 8375.71 1166.96 8361.69 1166.96H8031.74C8022.04 1166.96 8014.49 1163.66 8009.1 1157.07C8003.71 1149.38 8001.01 1139.49 8001.01 1127.4C8001.01 1109.82 8006.94 1096.63 8018.8 1087.84C8031.74 1079.05 8048.99 1074.66 8070.56 1074.66H8110.99V609.851C8110.99 560.404 8096.98 520.846 8068.94 491.177C8040.91 461.509 8001.01 446.675 7949.25 446.675C7909.36 446.675 7869.46 457.663 7829.56 479.64C7789.67 501.616 7753.01 531.285 7719.58 568.645V1074.66L7792.36 1096.08C7809.62 1100.48 7822.02 1106.52 7829.56 1114.21C7837.11 1121.91 7840.89 1131.8 7840.89 1143.88C7840.89 1159.27 7833.88 1166.96 7819.86 1166.96H7489.91Z" fill="white"/>
<path d="M9017.95 1188.39C8914.43 1188.39 8822.78 1166.96 8742.98 1124.1C8664.27 1080.15 8602.27 1013.67 8556.98 924.666C8512.77 835.661 8490.67 725.778 8490.67 595.017C8490.67 464.256 8512.77 354.373 8556.98 265.368C8602.27 176.362 8664.27 109.883 8742.98 65.9298C8822.78 21.9766 8914.43 0 9017.95 0C9121.46 0 9212.57 21.9766 9291.29 65.9298C9371.08 109.883 9433.08 176.362 9477.29 265.368C9522.58 354.373 9545.22 464.256 9545.22 595.017C9545.22 725.778 9522.58 835.661 9477.29 924.666C9433.08 1013.67 9371.08 1080.15 9291.29 1124.1C9212.57 1166.96 9121.46 1188.39 9017.95 1188.39ZM9016.33 1079.6C9133.86 1079.6 9223.9 1037.85 9286.44 954.335C9348.98 870.824 9380.25 751.051 9380.25 595.017C9380.25 440.082 9348.98 320.309 9286.44 235.699C9223.9 151.089 9133.86 108.784 9016.33 108.784C8898.8 108.784 8808.76 151.089 8746.22 235.699C8684.76 320.309 8654.03 440.082 8654.03 595.017C8654.03 751.051 8684.76 870.824 8746.22 954.335C8808.76 1037.85 8898.8 1079.6 9016.33 1079.6Z" fill="white"/>
<path d="M9723.33 1166.96C9713.62 1166.96 9706.07 1163.66 9700.68 1157.07C9695.29 1149.38 9692.59 1139.49 9692.59 1127.4C9692.59 1109.82 9698.53 1096.63 9710.39 1087.84C9723.33 1079.05 9740.58 1074.66 9762.14 1074.66H9802.58V451.62H9723.33C9702.84 451.62 9692.59 438.983 9692.59 413.71C9692.59 395.03 9698.53 381.294 9710.39 372.504C9723.33 363.713 9740.58 359.318 9762.14 359.318H9944.91V524.142H9951.38C9990.2 473.596 10034.4 430.742 10084 395.579C10134.7 360.417 10181.6 342.835 10224.7 342.835C10250.6 342.835 10270.5 350.527 10284.6 365.911C10298.6 380.196 10305.6 398.326 10305.6 420.303C10305.6 448.872 10297.5 472.497 10281.3 491.177C10161.6 491.177 10052.2 536.779 9953 627.982V1074.66L10025.8 1096.08C10043 1101.58 10055.4 1108.17 10063 1115.86C10070.5 1122.46 10074.3 1131.8 10074.3 1143.88C10074.3 1159.27 10067.3 1166.96 10053.3 1166.96H9723.33Z" fill="white"/>
<path d="M10568.6 234.051C10538.4 234.051 10513 224.161 10492.6 204.382C10473.1 184.604 10463.4 158.781 10463.4 126.915C10463.4 95.0489 10473.1 69.7757 10492.6 51.0956C10513 31.3166 10538.4 21.4271 10568.6 21.4271C10597.7 21.4271 10621.9 31.3166 10641.4 51.0956C10661.8 69.7757 10672.1 95.0489 10672.1 126.915C10672.1 158.781 10661.8 184.604 10641.4 204.382C10621.9 224.161 10597.7 234.051 10568.6 234.051ZM10416.5 1166.96C10406.8 1166.96 10399.3 1163.66 10393.9 1157.07C10388.5 1149.38 10385.8 1139.49 10385.8 1127.4C10385.8 1109.82 10391.7 1096.63 10403.6 1087.84C10416.5 1079.05 10433.8 1074.66 10455.4 1074.66H10495.8V451.62H10416.5C10396.1 451.62 10385.8 438.983 10385.8 413.71C10385.8 395.03 10391.7 381.294 10403.6 372.504C10416.5 363.713 10433.8 359.318 10455.4 359.318H10646.2V1074.66L10719 1096.08C10736.2 1101.58 10748.6 1108.17 10756.2 1115.86C10763.7 1122.46 10767.5 1131.8 10767.5 1143.88C10767.5 1159.27 10760.5 1166.96 10746.5 1166.96H10416.5Z" fill="white"/>
<path d="M11241.4 1551C11193.9 1551 11146.5 1544.96 11099 1532.87C11051.6 1520.78 11011.7 1504.85 10979.3 1485.07C10940.5 1461.99 10921.1 1438.37 10921.1 1414.2C10921.1 1401.01 10924.9 1390.02 10932.4 1381.23C10941.1 1373.54 10950.8 1369.69 10961.6 1369.69C10968 1369.69 10975 1371.89 10982.6 1376.29C10991.2 1380.68 10997.1 1383.98 11000.4 1386.18C11070.5 1430.13 11148.6 1452.11 11234.9 1452.11C11311.5 1452.11 11369.1 1432.88 11408 1394.42C11446.8 1357.06 11466.2 1302.11 11466.2 1229.59V1069.71H11459.7C11433.8 1105.97 11400.4 1135.09 11359.4 1157.07C11318.5 1177.95 11269.9 1188.39 11213.9 1188.39C11148.1 1188.39 11087.7 1173.55 11032.7 1143.88C10978.8 1113.12 10935.1 1066.42 10901.7 1003.78C10869.4 941.149 10853.2 863.681 10853.2 771.379C10853.2 677.979 10871.5 599.412 10908.2 535.68C10944.8 470.849 10994.4 422.5 11057 390.634C11119.5 358.768 11188.5 342.835 11264 342.835C11325.5 342.835 11387.5 354.373 11450 377.448C11513.6 400.524 11567.5 430.742 11611.8 468.102V1206.52C11611.8 1315.3 11579.9 1399.91 11516.3 1460.35C11452.7 1520.78 11361.1 1551 11241.4 1551ZM11249.5 1089.49C11308.8 1089.49 11358.9 1070.81 11399.9 1033.45C11440.8 994.991 11461.3 945.544 11461.3 885.108V501.067C11434.4 482.387 11403.6 468.102 11369.1 458.213C11334.6 447.224 11300.1 441.73 11265.6 441.73C11190.1 441.73 11127.6 470.3 11078 527.439C11029.5 583.479 11005.2 664.793 11005.2 771.379C11005.2 873.571 11026.8 952.137 11069.9 1007.08C11113.1 1062.02 11172.9 1089.49 11249.5 1089.49Z" fill="white"/>
<path d="M11950.6 234.051C11920.4 234.051 11895.1 224.161 11874.6 204.382C11855.2 184.604 11845.5 158.781 11845.5 126.915C11845.5 95.0489 11855.2 69.7757 11874.6 51.0956C11895.1 31.3166 11920.4 21.4271 11950.6 21.4271C11979.8 21.4271 12004 31.3166 12023.4 51.0956C12043.9 69.7757 12054.2 95.0489 12054.2 126.915C12054.2 158.781 12043.9 184.604 12023.4 204.382C12004 224.161 11979.8 234.051 11950.6 234.051ZM11798.6 1166.96C11788.9 1166.96 11781.4 1163.66 11776 1157.07C11770.6 1149.38 11767.9 1139.49 11767.9 1127.4C11767.9 1109.82 11773.8 1096.63 11785.7 1087.84C11798.6 1079.05 11815.9 1074.66 11837.4 1074.66H11877.9V451.62H11798.6C11778.1 451.62 11767.9 438.983 11767.9 413.71C11767.9 395.03 11773.8 381.294 11785.7 372.504C11798.6 363.713 11815.9 359.318 11837.4 359.318H12028.3V1074.66L12101.1 1096.08C12118.3 1101.58 12130.7 1108.17 12138.3 1115.86C12145.8 1122.46 12149.6 1131.8 12149.6 1143.88C12149.6 1159.27 12142.6 1166.96 12128.6 1166.96H11798.6Z" fill="white"/>
<path d="M12280.5 1166.96C12270.8 1166.96 12263.3 1163.66 12257.9 1157.07C12252.5 1149.38 12249.8 1139.49 12249.8 1127.4C12249.8 1109.82 12255.7 1096.63 12267.6 1087.84C12280.5 1079.05 12297.8 1074.66 12319.4 1074.66H12359.8V451.62H12280.5C12260.1 451.62 12249.8 438.983 12249.8 413.71C12249.8 395.03 12255.7 381.294 12267.6 372.504C12280.5 363.713 12297.8 359.318 12319.4 359.318H12502.1V469.75H12508.6C12599.2 385.14 12691.9 342.835 12786.8 342.835C12863.3 342.835 12926.4 365.911 12976 412.062C13026.7 457.114 13052 518.648 13052 596.665V1074.66L13124.8 1096.08C13142.1 1101.58 13154.5 1108.17 13162 1115.86C13169.6 1122.46 13173.4 1131.8 13173.4 1143.88C13173.4 1159.27 13166.3 1166.96 13152.3 1166.96H12822.4C12812.7 1166.96 12805.1 1163.66 12799.7 1157.07C12794.3 1149.38 12791.6 1139.49 12791.6 1127.4C12791.6 1109.82 12797.6 1096.63 12809.4 1087.84C12822.4 1079.05 12839.6 1074.66 12861.2 1074.66H12901.6V609.851C12901.6 560.404 12887.6 520.846 12859.6 491.177C12831.5 461.509 12791.6 446.675 12739.9 446.675C12700 446.675 12660.1 457.663 12620.2 479.64C12580.3 501.616 12543.6 531.285 12510.2 568.645V1074.66L12583 1096.08C12600.2 1100.48 12612.6 1106.52 12620.2 1114.21C12627.7 1121.91 12631.5 1131.8 12631.5 1143.88C12631.5 1159.27 12624.5 1166.96 12610.5 1166.96H12280.5Z" fill="white"/>
<path d="M13417.2 1188.39C13389.1 1188.39 13365.4 1179.05 13346 1160.37C13327.7 1140.59 13318.5 1116.41 13318.5 1087.84C13318.5 1059.27 13327.7 1035.65 13346 1016.97C13365.4 997.189 13389.1 987.3 13417.2 987.3C13444.1 987.3 13466.8 997.189 13485.1 1016.97C13504.5 1035.65 13514.2 1059.27 13514.2 1087.84C13514.2 1116.41 13504.5 1140.59 13485.1 1160.37C13466.8 1179.05 13444.1 1188.39 13417.2 1188.39Z" fill="white"/>
<ellipse cx="13422.6" cy="1089.15" rx="105.642" ry="107.656" fill="white"/>
<circle cx="1705.89" cy="618.166" r="608.339" fill="white"/>
<path d="M0 1216.68H1216.68L0 0V1216.68Z" fill="white"/>
</svg>
